<svg xmlns="http://www.w3.org/2000/svg" fill="none" viewBox="0 0 96 96"><path fill="#000" d="M48 84c-10 0-18.5-3.5-25.5-10.5S12 58 12 48s3.5-18.5 10.5-25.5S38 12 48 12c.533 0 1.1.017 1.7.05.6.033 1.367.083 2.3.15-2.4 2.133-4.267 4.767-5.6 7.9-1.333 3.133-2 6.433-2 9.9 0 6 2.1 11.1 6.3 15.3 4.2 4.2 9.3 6.3 15.3 6.3 3.467 0 6.767-.617 9.9-1.85s5.767-2.95 7.9-5.15c.067.8.117 1.45.15 1.95.033.5.05.983.05 1.45 0 10-3.5 18.5-10.5 25.5S58 84 48 84Zm0-6c7.267 0 13.6-2.25 19-6.75s8.767-9.783 10.1-15.85a24.959 24.959 0 0 1-5.367 1.65c-1.91.367-3.822.55-5.733.55-7.646 0-14.157-2.689-19.535-8.066C41.088 44.157 38.4 37.647 38.4 30c0-1.6.167-3.317.5-5.15.333-1.833.933-3.917 1.8-6.25-6.533 1.8-11.95 5.45-16.25 10.95C20.15 35.05 18 41.2 18 48c0 8.333 2.917 15.417 8.75 21.25S39.667 78 48 78Z"/></svg>