<svg xmlns="http://www.w3.org/2000/svg" fill="none" viewBox="0 0 96 96"><path fill="#6F6F6F" d="M47.977 62c3.882 0 7.19-1.359 9.923-4.077 2.733-2.717 4.1-6.017 4.1-9.9 0-3.882-1.359-7.19-4.077-9.923-2.717-2.733-6.017-4.1-9.9-4.1-3.882 0-7.19 1.359-9.923 4.077-2.733 2.717-4.1 6.017-4.1 9.9 0 3.882 1.359 7.19 4.077 9.923 2.717 2.733 6.017 4.1 9.9 4.1ZM48 68c-5.533 0-10.25-1.95-14.15-5.85C29.95 58.25 28 53.533 28 48c0-5.533 1.95-10.25 5.85-14.15C37.75 29.95 42.467 28 48 28c5.533 0 10.25 1.95 14.15 5.85C66.05 37.75 68 42.467 68 48c0 5.533-1.95 10.25-5.85 14.15C58.25 66.05 53.533 68 48 68ZM7 51c-.85 0-1.563-.29-2.138-.867-.575-.579-.862-1.296-.862-2.15 0-.855.287-1.566.862-2.133S6.15 45 7 45h10c.85 0 1.563.29 2.137.867.575.579.863 1.296.863 2.15 0 .855-.288 1.566-.863 2.133S17.85 51 17 51H7Zm72 0c-.85 0-1.563-.29-2.138-.867-.575-.579-.862-1.296-.862-2.15 0-.855.287-1.566.862-2.133.576-.567 1.288-.85 2.138-.85h10c.85 0 1.563.29 2.138.867.575.579.862 1.296.862 2.15 0 .855-.287 1.566-.862 2.133-.576.567-1.288.85-2.138.85H79ZM47.983 20c-.855 0-1.566-.288-2.133-.863S45 17.85 45 17V7c0-.85.29-1.563.867-2.138.579-.575 1.296-.862 2.15-.862.855 0 1.566.287 2.133.862S51 6.15 51 7v10c0 .85-.29 1.563-.867 2.137-.579.575-1.296.863-2.15.863Zm0 72c-.855 0-1.566-.287-2.133-.862C45.283 90.562 45 89.85 45 89V79c0-.85.29-1.563.867-2.138.579-.575 1.296-.862 2.15-.862.855 0 1.566.287 2.133.862.567.576.85 1.288.85 2.138v10c0 .85-.29 1.563-.867 2.138-.579.575-1.296.862-2.15.862ZM24 28.2l-5.7-5.6c-.6-.6-.888-1.32-.863-2.16.025-.84.309-1.557.853-2.15a2.93 2.93 0 0 1 2.15-.89c.84 0 1.56.3 2.16.9l5.6 5.7c.533.6.8 1.3.8 2.1s-.267 1.483-.8 2.05c-.533.567-1.217.85-2.05.85-.833 0-1.55-.267-2.15-.8Zm49.4 49.5L67.8 72c-.533-.6-.8-1.313-.8-2.138s.283-1.512.85-2.062c.567-.6 1.25-.9 2.05-.9.8 0 1.5.3 2.1.9l5.7 5.6c.6.6.888 1.32.863 2.16-.025.84-.309 1.557-.853 2.15a2.93 2.93 0 0 1-2.15.89c-.84 0-1.56-.3-2.16-.9Zm-5.6-49.5c-.6-.6-.9-1.3-.9-2.1s.3-1.5.9-2.1l5.6-5.7c.6-.6 1.32-.888 2.16-.863.84.025 1.557.309 2.15.853.593.593.89 1.31.89 2.15 0 .84-.3 1.56-.9 2.16L72 28.2c-.533.533-1.212.8-2.036.8a3.21 3.21 0 0 1-2.164-.8ZM18.29 77.71a2.93 2.93 0 0 1-.89-2.15c0-.84.3-1.56.9-2.16l5.7-5.6c.587-.6 1.283-.9 2.09-.9.807 0 1.497.3 2.07.9.627.6.94 1.3.94 2.1s-.3 1.5-.9 2.1l-5.6 5.7c-.6.6-1.32.888-2.16.863-.84-.025-1.557-.309-2.15-.853Z"/></svg>