<svg xmlns="http://www.w3.org/2000/svg" fill="none" viewBox="0 0 101 100">
    <path fill="currentColor"
        d="M49.582 6.621c-1.328.488-2.46 1.29-3.71 2.598-1.29 1.386-2.052 2.578-3.673 5.82-1.66 3.34-2.715 4.805-4.238 5.957-1.465 1.094-2.07 1.426-6.855 3.652-4.473 2.07-6.446 3.223-8.028 4.668l-1.21 1.114-.567-.469c-4.336-3.477-11.192-.723-13.594 5.469-1.21 3.125-2.695 9.453-3.398 14.472-1.016 7.364-.899 14.766.293 18.38.918 2.753 2.89 5.117 5.234 6.269 1.29.644 1.602.722 2.969.722 1.367 0 1.699-.078 2.969-.722l1.445-.703 1.699 1.64c2.852 2.754 6.367 4.864 10.234 6.133 2.5.84 4.297 1.153 7.383 1.309 4.512.214 5.664.625 10.88 3.906 5.487 3.418 11.19 5.879 15.468 6.621 2.285.39 5.684.39 7.324-.02 2.715-.683 4.707-2.07 5.606-3.906.468-.957.507-1.23.43-2.675-.079-1.524-.41-2.5-1.466-4.454-.039-.058.84-.175 1.934-.234 5.371-.332 9.238-2.305 10.82-5.527.489-.997.567-1.387.567-2.813 0-1.426-.078-1.816-.567-2.812-.625-1.27-2.129-2.872-3.652-3.907l-.996-.664.566-.097a20.64 20.64 0 0 1 1.719-.235c1.914-.215 4.629-.996 6.27-1.797 1.914-.918 4.062-2.949 4.824-4.55 1.113-2.305 1.445-5.391.8-7.383-.937-2.89-4.238-5.137-9.53-6.465l-2.13-.547.86-.605c.488-.313 1.21-.957 1.62-1.407 2.442-2.714 2.657-7.578.49-10.976-1.388-2.149-4.044-3.887-6.954-4.531-2.227-.489-5.098-.372-13.984.566-9.141.957-12.5 1.27-12.598 1.191-.02-.039.664-1.015 1.543-2.187 4.277-5.742 5.313-11.192 3.047-15.996-.899-1.895-2.54-3.633-4.2-4.434-1.113-.547-1.542-.644-2.968-.703-1.25-.039-1.914.04-2.676.332Zm4.2 3.555c1.62.8 3.046 3.223 3.28 5.625.157 1.699-.37 4.16-1.288 6.035-.45.898-1.758 2.89-2.93 4.434-1.172 1.543-2.442 3.378-2.832 4.101-.996 1.758-1.895 4.395-2.617 7.559-.782 3.515-1.387 4.687-3.418 6.699-2.54 2.52-4.825 3.418-8.828 3.418-1.895 0-2.208.039-2.579.39-.937.88-.683 2.364.47 2.852.878.371 4.023.352 5.898-.039 3.964-.8 7.382-3.145 9.687-6.602.996-1.523 1.621-3.105 2.09-5.351.469-2.324.84-3.73 1.387-5.078l.39-1.016h1.211c1.524 0 5.84-.41 13.985-1.308 7.949-.88 12.343-.997 14.101-.332 3.047 1.171 4.531 3.203 4.531 6.25-.02 3.398-2.128 4.96-8.418 6.21-2.03.41-3.085.508-5.664.508-4.55 0-9.375.567-10.41 1.23-.86.528-1.015 1.798-.332 2.598.567.664 1.094.684 3.652.176 1.602-.332 2.754-.39 8.301-.39 6.602 0 8.125.117 11.973.898 4.336.879 7.227 2.344 8.164 4.121.371.703.352 2.578-.04 3.867-.605 2.012-1.776 3.262-4.042 4.297-2.617 1.172-5.41 1.563-11.113 1.563-3.907 0-4.14-.02-6.133-.586-3.965-1.114-9.375-1.973-14.043-2.266-2.149-.117-2.168-.117-2.793.41-.488.41-.625.664-.625 1.23.02 1.387.586 1.7 3.32 1.876 11.075.722 22.188 4.218 25.567 8.047 2.226 2.539.508 5.37-4.004 6.62-1.465.41-5.84.606-7.5.333-1.035-.176-1.7-.469-3.614-1.621-2.968-1.797-6.25-3.38-10.41-5-3.77-1.465-4.55-1.582-5.234-.782-.566.664-.625 1.68-.117 2.246.175.235 1.777.958 3.691 1.7 6.817 2.597 11.66 5.254 13.906 7.617 2.344 2.48 3.008 4.687 1.778 5.937-.977.957-2.52 1.446-5.02 1.543-4.843.176-10.82-1.933-17.812-6.308-5.664-3.555-7.188-4.102-11.992-4.414-1.7-.098-3.711-.313-4.473-.47-6.211-1.308-12.285-5.468-14.55-9.96-.684-1.328-.997-2.5-1.212-4.434-.195-1.757-.156-2.48.293-5.37.117-.743.059-.88-.469-1.426-.43-.43-.78-.586-1.25-.586-1.289.02-1.777.879-2.09 3.75-.292 2.558 0 5.37.782 7.578.781 2.226.781 2.343 0 2.812-2.012 1.192-4.59-.215-6.074-3.3-2.168-4.512-1.25-18.653 1.875-28.965.84-2.754 1.425-3.926 2.558-5.137 2.13-2.285 5.293-2.637 6.973-.781.312.351.332.507.136 1.27-.507 2.03.02 3.241 1.387 3.241 1.016 0 1.465-.449 1.914-1.914 1.075-3.613 2.48-4.726 10.547-8.418 6.992-3.222 8.887-5.02 12.031-11.386 1.524-3.125 2.696-4.688 4.18-5.586 1.29-.762 2.559-.84 3.867-.215Z" />
</svg>