<svg fill="none" xmlns="http://www.w3.org/2000/svg" viewBox="0 0 101 100">
    <path
        d="M64.543 14.355c6.348 1.153 10.547 5.801 10.566 11.66v1.329h.82c2.637.02 6.114 1.465 7.97 3.32 1.269 1.27 2.382 3.3 2.734 5.02.136.664.195 1.894.136 2.988-.097 2.11-.566 3.535-1.62 5.078-.762 1.113-.782 1.21-.333 1.582.508.43 1.524 2.129 2.012 3.398.547 1.426.664 4.668.215 6.25-.606 2.188-2.09 4.57-3.652 5.918-.82.684-.86.782-.665 1.29.098.292.293 1.152.41 1.894.684 4.473-2.09 9.043-6.503 10.742-1.055.39-1.114.45-.977.938.274 1.015.117 3.398-.332 4.707-.8 2.383-2.422 4.023-4.883 4.902-1.25.45-1.425.469-7.636.469-6.7-.02-9.278-.196-14.16-.977-11.27-1.816-18.497-5.86-21.602-12.129-.762-1.523-1.094-2.011-1.309-1.933-4.453 1.699-8.808-1.563-10.664-7.989-1.308-4.492-1.758-10.703-1.289-17.402.469-6.367 1.777-10.644 4.063-13.183 2.187-2.442 5.273-3.125 7.968-1.758.41.215.801.39.86.39.078 0 .527-.644 1.035-1.425 2.266-3.594 6.523-6.504 11.563-7.93.878-.254 3.808-1.543 6.738-2.95 5.527-2.695 8.183-3.69 11.113-4.179 2.207-.371 5.43-.371 7.422-.02Zm-6.621 3.418c-2.48.391-5.567 1.543-10.332 3.907-3.008 1.504-5.547 2.597-7.168 3.144-5.527 1.797-8.711 4.14-10.41 7.637-.996 2.05-1.211 3.242-1.153 6.309.059 3.027-.058 3.437-1.035 3.789-.449.156-.742.136-1.25-.059-1.074-.45-1.172-.82-1.191-4.59l-.04-3.418-.507-.449c-1.816-1.543-4.14-.566-5.586 2.363-1.25 2.54-1.875 6.211-2.07 12.032-.274 8.007.957 14.667 3.242 17.558.957 1.211 2.246 1.875 3.281 1.68 1.445-.254 1.524-.41 1.68-2.871.234-3.985.566-4.746 2.09-4.746.644 0 .898.117 1.289.566.449.547.468.645.312 1.953-.234 1.973-.176 4.727.117 5.977.137.586.606 1.816 1.036 2.695 3.535 7.246 15.234 11.152 33.359 11.172 4.55 0 5.703-.176 6.914-.996 1.738-1.192 2.324-4.121 1.23-6.211-.644-1.25-.664-1.992-.078-2.676.371-.43.664-.527 1.895-.664 1.777-.176 3.047-.742 4.219-1.894 2.03-1.954 2.48-4.649 1.27-7.52-.782-1.875-.704-2.324.683-3.242 2.89-1.934 4.414-4.785 4.101-7.715-.175-1.797-.898-3.145-2.48-4.648-1.172-1.133-1.348-1.387-1.348-2.012 0-.586.176-.86 1.133-1.817 1.563-1.562 2.05-2.656 2.148-4.746.098-2.07-.37-3.437-1.62-4.824C78.878 30.352 73.663 30 66.3 32.402c-1.875.606-2.598.762-2.93.625-1.27-.488-1.64-2.05-.684-2.89.626-.528 4.746-1.875 7.188-2.344l1.777-.332-.097-1.7c-.215-3.788-2.559-6.581-6.407-7.675-.585-.156-1.347-.332-1.66-.371-1.21-.156-4.336-.117-5.566.058Z"
        fill="currentColor" />
</svg>