<svg xmlns="http://www.w3.org/2000/svg" fill="none" viewBox="0 0 101 100"><g clip-path="url(#a)"><path fill="#fff" d="M57.742 14.082c2.559.234 7.324 1.094 10.176 1.855 4.121 1.075 7.05 2.305 9.883 4.141 1.347.899 4.531 3.887 5.312 5l.41.586.625-.547c1.348-1.133 2.5-1.562 4.2-1.562 1.347-.02 1.738.058 2.851.586 5 2.382 7.969 10.449 8.79 23.906.546 9.16-.9 15.957-4.141 19.433-1.7 1.817-2.871 2.344-5.157 2.344-1.543 0-1.894-.078-2.89-.566-.625-.293-1.153-.508-1.192-.489-.02.04-.468.723-.976 1.504-4.395 6.68-13.184 11.368-21.348 11.368H62.04l-1.21.918c-1.388 1.035-4.18 2.421-5.88 2.89-1.777.489-6.133.625-7.715.215-3.652-.918-6.406-3.262-7.363-6.289l-.313-.996-1.523-.332c-2.95-.625-5.879-2.559-7.265-4.746-1.797-2.832-1.739-6.582.156-9.707.37-.625.664-1.172.644-1.192-.039-.02-1.328.098-2.89.235-4.356.41-12.657.39-15.528-.02-4.707-.683-7.09-1.543-8.965-3.262C.36 55.86.594 49.082 4.657 44.941c2.402-2.441 5.507-3.437 12.01-3.886l1.954-.137-1.152-.547c-2.989-1.387-5.86-3.828-7.012-5.957-2.363-4.375-.352-10.352 4.316-12.793 5.215-2.754 14.493-2.305 25 1.192l2.188.742.781-1.582c2.813-5.84 7.95-8.535 15-7.891Zm-5.137 3.809c-3.378.82-5.585 2.87-7.207 6.68-.879 2.09-1.836 3.437-4.687 6.581-3.535 3.887-3.633 4.22-1.66 6.035 2.968 2.754 7.11 3.633 10.215 2.188 3.007-1.387 6.21-5.215 6.66-7.988.195-1.075.86-1.7 1.816-1.7 1.192 0 1.66.645 1.719 2.305.039 1.68.215 2.442.8 3.652 1.368 2.676 3.946 4.434 7.325 4.961.937.157 1.328.333 1.66.704.645.722.586 1.562-.156 2.285-.567.586-.625.605-1.914.468-3.633-.332-7.364-2.539-9.317-5.546-.39-.606-.761-1.153-.8-1.192-.04-.058-.215.117-.391.39-1.27 1.817-3.809 3.868-6.016 4.884-.976.449-1.27.644-1.093.82.37.371.253 1.445-.254 2.031l-.489.547-2.597-.039c-1.426-.04-5.332-.273-8.653-.547-8.984-.722-12.05-.879-16.758-.879-6.132 0-9.746.489-11.972 1.602-2.559 1.27-4.297 4.824-3.77 7.734.664 3.594 3.535 4.961 11.621 5.528 3.653.253 8.614.058 15.47-.626l4.023-.41 1.465-.879c2.968-1.816 6.718-3.34 10.468-4.296 2.637-.645 6.992-.84 8.965-.371 1.953.468 3.477 1.347 4.824 2.831 2.52 2.754 3.262 5.645 2.246 8.692l-.527 1.543.977.996c2.5 2.539 2.832 6.074.937 9.922l-.644 1.328h.664c1.171 0 4.55-.781 6.367-1.484.976-.372 2.48-1.075 3.34-1.582 7.793-4.473 11.465-11.66 9.863-19.356-.234-1.21-.313-1.992-.195-2.285.41-1.094 1.992-1.445 2.812-.605.8.78 1.191 3.046 1.172 6.562 0 2.383-.098 3.32-.41 4.453-.43 1.582-.41 1.621.86 2.266 1.347.683 2.91.254 4.081-1.133 2.89-3.379 3.828-11.738 2.5-22.422-.996-8.086-3.32-13.789-6.191-15.176-1.426-.683-2.5-.449-3.535.762-.645.781-.645 1.035.097 3.086 1.094 3.105 1.914 7.52 1.934 10.332 0 1.094-.04 1.23-.606 1.7-.683.585-1.132.624-1.933.214-.684-.352-.899-1.016-1.074-3.223-.352-4.433-1.563-8.633-3.34-11.562-3.399-5.586-9.278-8.711-19.688-10.508-4.59-.781-6.64-.84-9.004-.273Zm-33.808 5.937c-3.38.86-5.176 2.637-5.742 5.625-1.035 5.567 7.226 9.942 22.89 12.129 3.965.566 3.946.566 2.227-.566-3.067-2.051-4.336-4.297-3.828-6.758.293-1.387 1.308-2.871 3.691-5.41 1.074-1.172 1.973-2.149 1.973-2.188 0-.137-4.16-1.426-6.25-1.933-6.055-1.465-11.485-1.778-14.961-.899Zm30.996 32.617c-2.656.547-4.59 1.211-7.422 2.559-4.434 2.129-7.598 4.629-8.71 6.914-1.192 2.422-.782 4.883 1.073 6.621 2.696 2.52 6.739 2.95 11.914 1.27 3.692-1.211 8.965-4.434 11.739-7.188 1.816-1.816 2.52-3.027 2.675-4.512.118-1.21-.195-2.09-1.23-3.476-.918-1.27-1.875-1.953-3.223-2.305-1.386-.39-4.648-.332-6.816.117Zm6.348 16.426c-3.887 2.617-7.989 4.434-11.504 5.098-1.543.293-1.621.488-.664 1.758.722.957 2.168 1.992 3.222 2.324.39.117 1.66.273 2.813.312 2.617.117 4.414-.234 6.66-1.347 3.262-1.622 6.27-5.47 6.523-8.36.137-1.426-.293-2.695-1.152-3.418l-.586-.488-1.484 1.289c-.82.703-2.54 1.992-3.828 2.832Z"/></g><defs><clipPath id="a"><path fill="#fff" d="M100.75 0H.75v100h100z"/></clipPath></defs></svg>